<svg width="233" height="53" viewBox="0 0 233 53" fill="none" xmlns="http://www.w3.org/2000/svg">
<path d="M107.767 10.4278C103.314 10.1312 101.236 11.6145 101.236 15.4712H107.767V25.8545H101.236V51.3678H90.548V25.5578H85.798V15.4712H90.548C90.548 10.4278 92.0324 6.2745 95.0012 3.6045C97.9699 0.9345 102.126 -0.252167 108.064 0.0445V10.4278H107.767Z" fill="#EA8E75"/>
<path fill-rule="evenodd" clip-rule="evenodd" d="M33.5469 19.6246C29.9844 16.0646 26.125 14.2846 21.375 14.2846C16.9219 14.2846 13.3594 15.7679 10.6875 18.7346V1.23128H0V50.478H10.6875V47.2146C13.3594 50.1813 16.9219 51.6646 21.375 51.6646C26.125 51.6646 30.2812 49.8846 33.5469 46.3246C36.8125 42.7646 38.5938 38.3146 38.5938 32.9746C38.5938 27.6346 36.8125 23.1846 33.5469 19.6246ZM19.2969 41.8746C16.625 41.8746 14.5469 40.9846 13.0625 39.5013C11.5781 38.0179 10.6875 35.9413 10.6875 32.9746C10.6875 30.3046 11.5781 28.2279 13.0625 26.7446C14.8438 25.2613 16.625 24.6679 19.2969 24.6679C21.6719 24.6679 23.75 25.2613 25.5313 27.0413C27.0156 28.5246 27.9062 30.6013 27.9062 33.2713C27.9062 35.9413 27.0156 38.0179 25.5313 39.5013C23.75 40.9846 21.6719 41.8746 19.2969 41.8746Z" fill="#EA8E75"/>
<path fill-rule="evenodd" clip-rule="evenodd" d="M81.0463 15.4716H70.3588V19.3282C67.6869 16.3616 64.1244 14.8782 59.6713 14.8782C54.9213 14.8782 50.765 16.6582 47.4994 20.2182C44.2338 23.7782 42.4525 28.2282 42.4525 33.5682C42.4525 38.9082 43.9369 43.3582 47.4994 46.9182C51.0619 50.4782 54.9213 52.2582 59.6713 52.2582C64.4213 52.2582 67.6869 50.7749 70.3588 47.8082V51.0716H81.0463V15.4716ZM62.0463 41.8749C59.3744 41.8749 57.2963 40.9849 55.8119 39.5016C54.3275 38.0182 53.4369 35.9416 53.4369 33.2716C53.4369 30.6016 54.0307 28.5249 55.8119 27.0416C57.5932 25.5582 59.3744 24.6682 62.0463 24.6682C64.7182 24.6682 66.7963 25.5582 68.2807 27.0416C69.765 28.5249 70.6557 30.6016 70.6557 33.2716C70.6557 35.9416 69.765 38.0182 68.2807 39.5016C66.4994 40.9849 64.7182 41.8749 62.0463 41.8749Z" fill="#EA8E75"/>
<path fill-rule="evenodd" clip-rule="evenodd" d="M128.844 51.9613C134.188 51.9613 138.641 50.1813 142.203 46.6213C145.766 43.0613 147.547 38.6113 147.844 33.2713C147.844 27.9313 145.766 23.4813 142.203 19.9213C138.641 16.3613 134.188 14.5813 128.844 14.5813C123.5 14.5813 119.047 16.3613 115.484 19.9213C111.625 23.4813 109.844 27.9313 109.844 33.2713C109.844 38.6113 111.625 43.0613 115.484 46.6213C119.047 50.1813 123.5 51.9613 128.844 51.9613ZM128.844 41.5779C126.469 41.5779 124.391 40.6879 122.906 39.2046C121.125 37.7213 120.531 35.6446 120.531 33.2713C120.531 30.8979 121.422 28.8213 122.906 27.3379C124.688 25.8546 126.469 24.9646 128.844 24.9646C131.219 24.9646 133.297 25.8546 134.781 27.3379C136.266 28.8213 137.156 30.8979 137.156 33.2713C137.156 35.6446 136.562 37.7213 134.781 39.2046C133 40.6879 131.219 41.5779 128.844 41.5779Z" fill="#EA8E75"/>
<path fill-rule="evenodd" clip-rule="evenodd" d="M184.36 46.6213C180.797 50.1813 176.344 51.9613 171.001 51.9613C165.657 51.9613 161.204 50.1813 157.641 46.6213C154.079 43.0613 152.001 38.6113 152.001 33.2713C152.001 27.9313 153.782 23.4813 157.641 19.9213C161.204 16.3613 165.657 14.5813 171.001 14.5813C176.344 14.5813 180.797 16.3613 184.36 19.9213C187.922 23.4813 190.001 27.9313 190.001 33.2713C189.704 38.6113 187.922 43.0613 184.36 46.6213ZM165.063 39.2046C166.547 40.6879 168.626 41.5779 171.001 41.5779C173.376 41.5779 175.157 40.6879 176.938 39.2046C178.422 37.7213 179.313 35.6446 179.313 33.2713C179.313 30.8979 178.422 28.8213 176.938 27.3379C175.454 25.8546 173.376 24.9646 171.001 24.9646C168.626 24.9646 166.844 25.8546 165.063 27.3379C163.579 28.8213 162.688 30.8979 162.688 33.2713C162.688 35.6446 163.282 37.7213 165.063 39.2046Z" fill="#EA8E75"/>
<path fill-rule="evenodd" clip-rule="evenodd" d="M232.453 1.23128H221.765V19.3279C219.093 16.3613 215.531 14.8779 211.078 14.8779C206.328 14.8779 202.171 16.6579 198.906 20.2179C195.64 23.778 193.859 28.228 193.859 33.568C193.859 38.908 195.64 43.358 198.906 46.918C202.468 50.478 206.328 52.258 211.078 52.258C215.828 52.258 219.093 50.7746 221.765 47.808V51.0713H232.453V1.23128ZM213.453 41.8746C210.781 41.8746 208.703 40.9846 207.218 39.5013C205.437 38.018 204.843 35.9413 204.843 32.9746C204.843 30.3046 205.734 28.228 207.218 26.7446C208.703 25.2613 210.781 24.6679 213.453 24.6679C216.124 24.6679 218.203 25.558 219.687 27.0413C221.171 28.5246 222.062 30.6013 222.062 33.2713C222.062 35.9413 221.171 38.018 219.687 39.5013C217.906 40.9846 216.124 41.8746 213.453 41.8746Z" fill="#EA8E75"/>
</svg>
