<svg width="181" height="60" viewBox="0 0 181 60" fill="none" xmlns="http://www.w3.org/2000/svg">
<g clip-path="url(#clip0_6756_27141)">
<path fill-rule="evenodd" clip-rule="evenodd" d="M169.338 0H11.4345C2.01062 0 0.441162 3.24706 0.441162 10.9694V49.0994C0.441162 56.8165 3.66875 60 11.4238 60H169.34C177.1 60 180.441 56.8112 180.441 49.0888V10.9694C180.441 3.24706 177.098 0 169.338 0Z" fill="black"/>
<path fill-rule="evenodd" clip-rule="evenodd" d="M47.3707 37.3484C46.4645 39.3478 46.03 40.2408 44.8631 42.0072C43.2333 44.4743 40.9386 47.5466 38.094 47.5731C35.5669 47.596 34.9179 45.9355 31.4881 45.9549C28.0584 45.9743 27.3419 47.6013 24.813 47.5784C21.9685 47.5519 19.7943 44.7778 18.1646 42.3108C13.6105 35.4108 13.1334 27.3143 15.9425 23.0102C17.9393 19.9519 21.0871 18.1608 24.0487 18.1608C27.0635 18.1608 28.9592 19.8055 31.4509 19.8055C33.868 19.8055 35.3417 18.1572 38.8282 18.1572C41.4635 18.1572 44.2548 19.5849 46.2428 22.0537C39.7273 25.6096 40.786 34.8725 47.3707 37.3484Z" fill="white"/>
<path fill-rule="evenodd" clip-rule="evenodd" d="M36.1841 15.4044C37.4503 13.788 38.4115 11.5027 38.0639 9.16797C35.9961 9.30915 33.5754 10.6186 32.162 12.3268C30.8799 13.8762 29.8212 16.1756 30.2344 18.4097C32.4919 18.4786 34.8275 17.1374 36.1841 15.4044Z" fill="white"/>
<path fill-rule="evenodd" clip-rule="evenodd" d="M164.369 40.5883H155.211C155.246 41.8236 155.69 42.9071 156.541 43.6183C157.31 44.2571 158.309 44.5483 159.534 44.5483C160.893 44.5483 162.123 44.3189 163.237 43.8812L163.718 45.9865C162.423 46.553 160.884 46.8248 159.109 46.8248C156.984 46.8248 155.312 46.2036 154.097 44.9577C152.882 43.7118 152.27 42.0371 152.27 39.9389C152.27 37.8724 152.838 36.1606 153.966 34.7859C155.158 33.3265 156.759 32.5959 158.772 32.5959C160.756 32.5959 162.251 33.3248 163.266 34.7859C164.072 35.9524 164.48 37.4453 164.48 39.1518C164.48 39.6901 164.441 40.2353 164.369 40.5883ZM151.357 35.5748C151.18 35.52 150.71 35.4971 150.373 35.4971C149.3 35.4971 148.461 35.8995 147.876 36.7042C147.365 37.4189 147.101 38.3048 147.101 39.4006V46.4118H144.086V37.2018C144.086 35.6365 144.021 34.2353 143.967 32.8236H146.622L146.736 35.6471H146.819C147.138 34.7648 147.644 33.9618 148.344 33.4236C149.022 32.9312 149.784 32.663 150.575 32.663C150.855 32.663 151.178 32.6453 151.355 32.6824V35.5748H151.357ZM140.323 44.8042C139.057 46.1877 137.381 46.8812 135.294 46.8812C133.274 46.8812 131.664 46.2159 130.468 44.8853C129.273 43.5583 128.679 41.873 128.679 39.8524C128.679 37.7365 129.294 36 130.529 34.6518C131.765 33.2965 133.423 32.6312 135.514 32.6312C137.537 32.6312 139.156 33.2895 140.38 34.6271C141.545 35.9136 142.128 37.5865 142.128 39.6283C142.127 41.7318 141.529 43.4506 140.323 44.8042ZM127.771 35.2942H124.579V41.8218C124.579 43.5071 125.104 44.3436 126.292 44.3436C126.838 44.3436 127.25 44.3048 127.611 44.2112L127.681 46.5106C127.076 46.7365 126.278 46.8495 125.299 46.8495C124.1 46.8495 123.118 46.4895 122.442 45.7518C121.757 45.0248 121.389 43.7948 121.389 42.0706V35.2942H119.438V32.8236H121.389V30.4024L124.581 29.5024V32.8236H127.773V35.2942H127.771ZM117.044 45.1906C115.797 46.2989 114.07 46.8495 111.855 46.8495C109.801 46.8495 108.159 46.4542 106.919 45.6706L107.629 43.1401C108.966 43.9236 110.434 44.3206 112.03 44.3206C113.185 44.3206 114.077 44.0595 114.719 43.5477C115.355 43.0342 115.676 42.3459 115.676 41.4724C115.676 40.7136 115.412 40.0677 114.887 39.5383C114.355 39.0142 113.486 38.5306 112.261 38.0771C108.93 36.8436 107.262 35.0348 107.262 32.6542C107.262 31.0995 107.843 29.82 109.023 28.8283C110.2 27.8365 111.759 27.3389 113.701 27.3389C115.433 27.3389 116.875 27.6406 118.026 28.2371L117.256 30.713C116.184 30.1342 114.962 29.8395 113.602 29.8395C112.525 29.8395 111.683 30.1112 111.074 30.6248C110.567 31.0995 110.312 31.6712 110.312 32.3436C110.312 33.0883 110.604 33.7095 111.186 34.2036C111.697 34.6518 112.619 35.1353 113.953 35.6595C115.597 36.3106 116.799 37.0836 117.574 37.9677C118.344 38.8483 118.732 39.9424 118.732 41.2536C118.734 42.8683 118.166 44.1848 117.044 45.1906ZM99.4108 45.0848C98.274 46.2795 96.8553 46.8795 95.167 46.8795C93.3493 46.8795 92.1256 46.2336 91.2389 44.9348V52.2354H88.2242V37.3942C88.2242 35.933 88.1674 34.5883 88.0947 32.8236H90.7725L90.9499 35.1177H91.0031C92.0281 33.5295 93.5674 32.6542 95.6388 32.6542C97.2596 32.6542 98.611 33.2736 99.6945 34.5512C100.78 35.8236 101.321 37.4983 101.321 39.5789C101.319 41.9083 100.684 43.733 99.4108 45.0848ZM84.3227 45.0848C83.1877 46.2795 81.7725 46.8795 80.0878 46.8795C78.2648 46.8795 77.0518 46.2336 76.1651 44.9348V52.2354H73.1503V37.3942C73.1503 35.933 73.0811 34.5883 73.0031 32.8236H75.688L75.8565 35.1177H75.9097C76.9329 33.5295 78.474 32.6542 80.5489 32.6542C82.168 32.6542 83.5176 33.2736 84.6064 34.5512C85.6864 35.8236 86.2291 37.4983 86.2291 39.5789C86.2309 41.9083 85.596 43.733 84.3227 45.0848ZM68.0021 46.4118L66.2234 40.9412H60.0325L58.3353 46.4118H55.1733L61.3004 27.5295H65.092L71.2545 46.4118H68.0021ZM158.547 34.7012C157.55 34.7012 156.741 35.2095 156.117 36.0283C155.61 36.683 155.305 37.4118 155.213 38.4706H161.57C161.586 37.4118 161.393 36.7148 160.98 36.0548C160.449 35.2148 159.637 34.7012 158.547 34.7012ZM63.1128 30.1765H63.0596C62.8681 31.0589 62.5702 32.2342 62.1517 33.81L60.5698 38.8236H65.6825L64.0793 33.81C63.9056 33.3018 63.581 31.9412 63.1128 30.1765ZM94.6492 35.04C93.8937 35.04 93.2181 35.2871 92.6027 35.783C91.9909 36.2859 91.5777 36.9371 91.3879 37.7436C91.2939 38.1212 91.2389 38.4283 91.2389 38.6736V40.9483C91.2389 41.9436 91.5511 42.7853 92.1664 43.4701C92.7783 44.1477 93.5798 44.4918 94.5552 44.4918C95.7097 44.4918 96.607 44.0542 97.2472 43.1701C97.8892 42.2877 98.212 41.1265 98.212 39.6795C98.212 38.3524 97.9087 37.2548 97.3075 36.3936C96.6443 35.4971 95.7576 35.04 94.6492 35.04ZM135.4 34.8495C134.178 34.8495 133.245 35.3895 132.609 36.4748C132.057 37.3677 131.786 38.46 131.786 39.7501C131.786 41.0083 132.057 42.0795 132.609 42.9759C133.261 44.0595 134.185 44.5995 135.377 44.5995C136.537 44.5995 137.455 44.0524 138.112 42.9424C138.681 42.0353 138.965 40.9465 138.965 39.6989C138.965 38.4477 138.692 37.3695 138.149 36.4765C137.5 35.3895 136.588 34.8495 135.4 34.8495ZM79.5558 35.04C78.8039 35.04 78.1247 35.2871 77.5093 35.783C76.8957 36.2859 76.4949 36.9371 76.3052 37.7436C76.2129 38.1212 76.1633 38.4283 76.1633 38.6736V40.9483C76.1633 41.9436 76.4665 42.7853 77.0819 43.4701C77.6937 44.1477 78.4918 44.4918 79.4689 44.4918C80.6163 44.4918 81.5172 44.0542 82.1574 43.1701C82.7976 42.2877 83.115 41.1265 83.115 39.6795C83.115 38.3524 82.8171 37.2548 82.2141 36.3936C81.5526 35.4971 80.6695 35.04 79.5558 35.04Z" fill="white"/>
<path d="M64.5338 13.0801V21.4395L65.4666 21.4836L65.3638 25.2865H63.9929L63.8901 22.8636H57.9244L57.8215 25.2865H56.4507L56.3638 21.4836L57.1512 21.4395C57.5307 20.7565 57.88 20.0454 58.0999 19.2777C58.4067 18.233 58.5238 17.0418 58.5238 15.6354V13.0801H64.5338ZM60.1872 16.0836C60.1872 17.4195 60.0418 18.623 59.7208 19.6536C59.5311 20.2924 59.2544 20.9171 58.9919 21.3954H62.7409V14.5448H60.1872V16.0836Z" fill="white"/>
<path d="M73.4895 19.262C73.4895 21.8597 71.6523 23.0208 69.8434 23.0208C67.8306 23.0208 66.2842 21.6426 66.2842 19.3785C66.2842 17.0561 67.8164 15.6338 69.9604 15.6338C72.0743 15.6338 73.4895 17.1144 73.4895 19.262ZM68.1356 19.3344C68.1356 20.6985 68.806 21.7291 69.9001 21.7291C70.9216 21.7291 71.6363 20.7285 71.6363 19.3061C71.6363 18.2032 71.1397 16.9397 69.9143 16.9397C68.6463 16.9397 68.1356 18.1591 68.1356 19.3344Z" fill="white"/>
<path d="M80.1843 22.6452C79.8048 22.8199 79.0618 23.0087 78.1715 23.0087C75.9548 23.0087 74.5112 21.6005 74.5112 19.4087C74.5112 17.2893 75.969 15.6357 78.4641 15.6357C79.1203 15.6357 79.7906 15.7804 80.2003 15.9693L79.8793 17.3052C79.5885 17.1746 79.1646 17.0299 78.5227 17.0299C77.1518 17.0299 76.3343 18.0304 76.3502 19.3222C76.3502 20.7728 77.299 21.6005 78.5227 21.6005C79.1504 21.6005 79.5867 21.4699 79.9378 21.3252L80.1843 22.6452Z" fill="white"/>
<path d="M86.9958 15.7939V17.1722H84.8659V22.8616H83.0713V17.1722H80.9414V15.7939H86.9958Z" fill="white"/>
<path d="M89.4465 15.7939L90.7304 19.5828C90.8758 20.0187 91.023 20.5551 91.1241 20.961H91.1685C91.2855 20.5551 91.4167 20.0328 91.548 19.5669L92.6563 15.7939H94.5822L92.8035 20.6134C91.8264 23.2551 91.1702 24.4304 90.3243 25.1557C89.6238 25.7804 88.895 26.0116 88.4428 26.0698L88.0349 24.561C88.3417 24.4886 88.7212 24.3281 89.0847 24.0669C89.4199 23.8498 89.8136 23.4281 90.0619 22.9498C90.1346 22.8192 90.1789 22.7169 90.1789 22.6304C90.1789 22.5581 90.1647 22.4557 90.076 22.2828L87.478 15.7939H89.4465Z" fill="white"/>
<path d="M101.875 15.7939V22.8616H100.066V17.1722H97.3967V22.8616H95.6021V15.7939H101.875Z" fill="white"/>
<path d="M105.565 15.7939V18.4939H108.307V15.7939H110.102V22.8616H108.307V19.8863H105.565V22.8616H103.771V15.7939H105.565Z" fill="white"/>
<path d="M118.764 19.262C118.764 21.8597 116.927 23.0208 115.118 23.0208C113.105 23.0208 111.559 21.6426 111.559 19.3785C111.559 17.0561 113.091 15.6338 115.235 15.6338C117.351 15.6338 118.764 17.1144 118.764 19.262ZM113.412 19.3344C113.412 20.6985 114.083 21.7291 115.177 21.7291C116.198 21.7291 116.913 20.7285 116.913 19.3061C116.913 18.2032 116.416 16.9397 115.191 16.9397C113.923 16.9397 113.412 18.1591 113.412 19.3344Z" fill="white"/>
<path d="M123.244 15.8808C123.769 15.7943 124.849 15.7061 125.826 15.7061C127.021 15.7061 129.181 15.8649 129.181 17.4919C129.181 18.3919 128.481 18.9002 127.724 19.059V19.0872C128.774 19.2461 129.502 19.8266 129.502 20.8149C129.502 22.7596 126.935 22.9484 125.505 22.9484C124.615 22.9484 123.668 22.8902 123.244 22.8461V15.8808ZM124.979 21.7872C125.271 21.8155 125.489 21.8313 125.855 21.8313C126.672 21.8313 127.663 21.6143 127.663 20.7866C127.663 19.989 126.876 19.7278 125.754 19.7278H124.98V21.7872H124.979ZM124.994 18.6531H125.738C126.656 18.6531 127.415 18.3919 127.415 17.7249C127.415 17.1584 126.919 16.8549 125.855 16.8549C125.505 16.8549 125.271 16.8831 124.994 16.9131V18.6531Z" fill="white"/>
</g>
<defs>
<clipPath id="clip0_6756_27141">
<rect width="180" height="60" fill="white" transform="translate(0.441162)"/>
</clipPath>
</defs>
</svg>
