<svg width="180" height="60" viewBox="0 0 180 60" fill="none" xmlns="http://www.w3.org/2000/svg">
<g clip-path="url(#clip0_6756_27142)">
<path fill-rule="evenodd" clip-rule="evenodd" d="M168.51 0H11.3808C2.00317 0 0.441406 3.24706 0.441406 10.9694V49.0994C0.441406 56.8165 3.65317 60 11.3702 60H168.512C176.234 60 179.559 56.8112 179.559 49.0888V10.9694C179.559 3.24706 176.233 0 168.51 0Z" fill="black"/>
<path d="M88.9872 34.398C85.7013 34.398 83.1001 36.8615 83.1001 40.285C83.1001 43.5709 85.7013 46.1721 88.9872 46.1721C92.273 46.1721 94.8742 43.7086 94.8742 40.285C94.8742 36.7239 92.273 34.398 88.9872 34.398ZM88.9872 43.705C87.2083 43.705 85.7013 42.1997 85.7013 40.1456C85.7013 38.0915 87.2066 36.5862 88.9872 36.5862C90.766 36.5862 92.273 37.9556 92.273 40.1456C92.273 42.1997 90.7677 43.705 88.9872 43.705ZM76.2566 34.398C72.9707 34.398 70.3695 36.8615 70.3695 40.285C70.3695 43.5709 72.9707 46.1721 76.2566 46.1721C79.5424 46.1721 82.1436 43.7086 82.1436 40.285C82.1419 36.7239 79.5424 34.398 76.2566 34.398ZM76.2566 43.705C74.4777 43.705 72.9707 42.1997 72.9707 40.1456C72.9707 38.0915 74.476 36.5862 76.2566 36.5862C78.0354 36.5862 79.5424 37.9556 79.5424 40.1456C79.5424 42.1997 78.0354 43.705 76.2566 43.705ZM61.0607 36.1768V38.6403H66.9477C66.8101 40.0097 66.263 41.1039 65.5783 41.7886C64.7577 42.6092 63.3883 43.5674 61.0607 43.5674C57.3654 43.5674 54.6266 40.6927 54.6266 36.9974C54.6266 33.3021 57.5013 30.4274 61.0607 30.4274C62.9772 30.4274 64.4824 31.248 65.5783 32.2062L67.3572 30.4274C65.8519 29.058 63.9354 27.9639 61.1966 27.9639C56.2677 27.9639 52.0254 32.0703 52.0254 36.9992C52.0254 41.928 56.2695 46.0344 61.1966 46.0344C63.9336 46.0344 65.8501 45.2139 67.493 43.4333C69.136 41.7903 69.683 39.4627 69.683 37.6839C69.683 37.1368 69.683 36.588 69.5454 36.1786L61.0607 36.1768ZM123.21 38.0933C122.663 36.7239 121.294 34.398 118.281 34.398C115.269 34.398 112.805 36.7256 112.805 40.285C112.805 43.5709 115.269 46.1721 118.555 46.1721C121.156 46.1721 122.799 44.5291 123.346 43.5709L121.43 42.2015C120.745 43.1597 119.924 43.8444 118.555 43.8444C117.185 43.8444 116.365 43.2974 115.68 42.0656L123.484 38.7797L123.21 38.0933ZM115.271 40.0097C115.271 37.8197 117.05 36.588 118.283 36.588C119.241 36.588 120.2 37.135 120.473 37.8197L115.271 40.0097ZM108.837 45.6215H111.438V28.5092H108.837V45.6215ZM104.73 35.6297C104.045 34.945 102.951 34.2603 101.582 34.2603C98.7072 34.2603 95.9701 36.8615 95.9701 40.1474C95.9701 43.4333 98.5713 45.8968 101.582 45.8968C102.951 45.8968 104.045 45.2121 104.594 44.5274H104.732V45.348C104.732 47.538 103.5 48.7697 101.584 48.7697C100.078 48.7697 98.9824 47.6739 98.7089 46.7156L96.5189 47.6739C97.2036 49.1791 98.8466 51.0956 101.721 51.0956C104.734 51.0956 107.197 49.3168 107.197 45.0727V34.668H104.734L104.73 35.6297ZM101.718 43.705C99.9389 43.705 98.4319 42.1997 98.4319 40.1456C98.4319 38.0915 99.9372 36.5862 101.718 36.5862C103.497 36.5862 104.866 38.0915 104.866 40.1456C104.866 42.1997 103.498 43.705 101.718 43.705ZM135.12 28.5109H128.96V45.6233H131.561V39.1892H135.12C137.995 39.1892 140.732 37.135 140.732 33.8509C140.732 30.5668 137.995 28.5109 135.12 28.5109ZM135.258 36.7239H131.562V30.8368H135.258C137.174 30.8368 138.27 32.4797 138.27 33.7115C138.132 35.2186 137.037 36.7239 135.258 36.7239ZM150.999 34.2603C149.082 34.2603 147.166 35.0809 146.481 36.8615L148.809 37.8197C149.356 36.8615 150.178 36.588 151.137 36.588C152.506 36.588 153.738 37.4086 153.874 38.778V38.9156C153.462 38.6421 152.368 38.2309 151.272 38.2309C148.809 38.2309 146.344 39.6003 146.344 42.0639C146.344 44.3915 148.398 45.8968 150.588 45.8968C152.367 45.8968 153.189 45.0762 153.874 44.2539H154.011V45.6233H156.475V39.0533C156.201 36.0392 153.874 34.2603 150.999 34.2603ZM150.725 43.705C149.905 43.705 148.671 43.2939 148.671 42.1997C148.671 40.8303 150.177 40.4209 151.408 40.4209C152.504 40.4209 153.051 40.6944 153.736 40.968C153.464 42.6109 152.095 43.705 150.725 43.705ZM165.099 34.6715L162.224 42.0639H162.088L159.076 34.6715H156.339L160.857 45.0762L158.255 50.8239H160.857L167.838 34.6697H165.099V34.6715ZM142.101 45.6215H144.702V28.5092H142.101V45.6215Z" fill="white"/>
<path fill-rule="evenodd" clip-rule="evenodd" d="M38.6897 24.7162L17.2485 12.3809L34.1844 29.2285L38.6897 24.7162Z" fill="white"/>
<path fill-rule="evenodd" clip-rule="evenodd" d="M15.2596 12.5059C15.1766 12.6559 15.0884 12.827 15.0884 13.0159V47.9235C15.0884 48.0329 15.1448 48.137 15.1748 48.2341L33.1096 30.2641L15.2596 12.5059Z" fill="white"/>
<path fill-rule="evenodd" clip-rule="evenodd" d="M34.188 31.2988L16.6045 48.9141C16.6557 48.8947 16.7068 48.8718 16.7563 48.8418L38.9739 36.0582L34.188 31.2988Z" fill="white"/>
<path fill-rule="evenodd" clip-rule="evenodd" d="M47.0916 29.5519L40.0028 25.4736L35.2222 30.263L40.2886 35.303L47.0916 31.3889C47.801 30.9813 47.801 29.9595 47.0916 29.5519Z" fill="white"/>
<path d="M54.3548 16.5879L51.7783 23.4703H52.9166L53.5677 21.7055H56.2413L56.8818 23.4703H58.0201L55.4436 16.5879H54.3548ZM55.8795 20.6467H53.9189L54.9001 17.9397L55.8795 20.6467Z" fill="white"/>
<path d="M62.9118 20.6026L62.9153 21.6085L59.7635 16.5879H58.5V23.4703H59.5588V19.212V18.2044L62.8641 23.4703H63.9706V16.5879H62.9118V20.6026Z" fill="white"/>
<path d="M67.1787 16.5879H65.0293V23.4703H67.1787C68.2216 23.4703 69.0669 23.1403 69.6952 22.5085C70.3234 21.8785 70.6411 21.0438 70.6411 20.0379C70.6411 19.032 70.3234 18.1867 69.6952 17.555C69.0687 16.925 68.2216 16.5879 67.1787 16.5879ZM67.1787 22.4114H66.0881V17.6467H67.1787C67.9199 17.6467 68.5128 17.8444 68.9434 18.2679C69.374 18.6914 69.5911 19.2826 69.5911 20.0414C69.5911 20.8055 69.374 21.3808 68.9434 21.8026C68.5146 22.2244 67.9199 22.4114 67.1787 22.4114Z" fill="white"/>
<path d="M75.5297 19.9744C75.8456 19.6038 76.0061 19.1697 76.0061 18.6861C76.0061 18.0932 75.7891 17.5797 75.3585 17.1879C74.9314 16.7997 74.4197 16.5879 73.8356 16.5879H71.5591V23.4703H72.4414V20.8232H73.3238L75.1185 23.4703H76.3238V23.2973L74.4708 20.6555C74.8997 20.5479 75.2367 20.3185 75.5297 19.9744ZM74.9561 18.6861C74.9561 19.0038 74.845 19.2526 74.6173 19.4608C74.3879 19.6708 74.1197 19.7661 73.7985 19.7661H72.4414V17.6485H73.855C74.1903 17.6485 74.4532 17.7402 74.6544 17.9644C74.8573 18.1902 74.9561 18.4144 74.9561 18.6861Z" fill="white"/>
<path d="M80.0364 16.4678C79.0428 16.4678 78.2011 16.8154 77.5323 17.5037C76.8652 18.1901 76.5264 19.0407 76.5264 20.0325C76.5264 21.0242 76.8652 21.8766 77.5323 22.5613C78.1993 23.2478 79.0428 23.5972 80.0364 23.5972C81.0299 23.5972 81.8717 23.2495 82.5405 22.5613C83.2075 21.8748 83.5464 21.0242 83.5464 20.0325C83.5464 19.046 83.2058 18.1972 82.5352 17.5072C81.8628 16.8189 81.0228 16.4678 80.0364 16.4678ZM80.0364 22.6036C79.3517 22.6036 78.7622 22.3619 78.2858 21.8854C77.8146 21.4036 77.5764 20.7789 77.5764 20.0325C77.5764 19.286 77.8164 18.6631 78.2893 18.1848C78.7623 17.7048 79.3499 17.4631 80.0346 17.4631C80.7193 17.4631 81.307 17.7066 81.7799 18.1848C82.2528 18.6648 82.4928 19.286 82.4928 20.0325C82.4928 20.7789 82.2528 21.4019 81.7799 21.8801C81.3087 22.3601 80.7211 22.6036 80.0364 22.6036Z" fill="white"/>
<path d="M85.5002 16.5879H84.4414V23.4703H85.5002V16.5879Z" fill="white"/>
<path d="M88.6997 16.5879H86.5591V23.4703H88.6997C89.7426 23.4703 90.5879 23.1403 91.2161 22.5085C91.8444 21.8785 92.162 21.0438 92.162 20.0379C92.162 19.032 91.8444 18.1867 91.2161 17.555C90.5897 16.925 89.7426 16.5879 88.6997 16.5879ZM88.6997 22.4114H87.6179V17.6467H88.6997C89.4408 17.6467 90.0338 17.8444 90.4644 18.2679C90.895 18.6914 91.112 19.2826 91.112 20.0414C91.112 20.8055 90.895 21.3808 90.4644 21.8026C90.0356 22.2244 89.4408 22.4114 88.6997 22.4114Z" fill="white"/>
<path d="M95.0293 23.4703H96.0881V17.6467H99.0881V23.4703H99.9705V16.5879H95.0293V23.4703Z" fill="white"/>
<path d="M103.555 16.5879H101.206V23.4703H102.265V20.8232H103.555C104.139 20.8232 104.651 20.592 105.078 20.2038C105.507 19.8138 105.725 19.2967 105.725 18.7038C105.725 18.1108 105.508 17.5885 105.078 17.1985C104.653 16.8085 104.139 16.5879 103.555 16.5879ZM104.374 19.4291C104.173 19.6532 103.911 19.7644 103.574 19.7644H102.265V17.6467H103.574C103.91 17.6467 104.173 17.7385 104.374 17.9626C104.577 18.1902 104.677 18.425 104.677 18.695C104.675 18.9667 104.577 19.2014 104.374 19.4291Z" fill="white"/>
<path d="M107.486 21.6085L107.559 20.6008V16.5879H106.5V23.4703H107.472L110.756 18.2044L110.735 19.2155V23.4703H111.794V16.5879H110.571L107.486 21.6085Z" fill="white"/>
<path d="M113.735 20.6855C113.735 21.1497 113.635 21.5344 113.441 21.8308C113.245 22.1308 112.931 22.3938 112.519 22.6144L112.431 22.6603L113.019 23.5497L113.088 23.5144C113.633 23.2426 114.076 22.8773 114.356 22.4326C114.637 21.9861 114.794 21.3985 114.794 20.6838V17.6467H117.265V23.4703H118.324V16.5879H113.735V20.6855Z" fill="white"/>
<path d="M122.677 16.4678C121.683 16.4678 120.842 16.8154 120.173 17.5037C119.506 18.1901 119.167 19.0407 119.167 20.0325C119.167 21.0242 119.506 21.8766 120.173 22.5613C120.842 23.2478 121.683 23.5972 122.677 23.5972C123.671 23.5972 124.512 23.2495 125.181 22.5613C125.848 21.8748 126.187 21.0242 126.187 20.0325C126.187 19.046 125.846 18.1972 125.176 17.5072C124.505 16.8189 123.665 16.4678 122.677 16.4678ZM122.677 22.6036C121.992 22.6036 121.403 22.3619 120.926 21.8854C120.455 21.4036 120.217 20.7789 120.217 20.0325C120.217 19.286 120.457 18.6631 120.93 18.1848C121.403 17.7048 121.991 17.4631 122.675 17.4631C123.36 17.4631 123.948 17.7066 124.421 18.1848C124.893 18.6648 125.133 19.286 125.133 20.0325C125.133 20.7789 124.893 21.4019 124.421 21.8801C123.949 22.3601 123.363 22.6036 122.677 22.6036Z" fill="white"/>
<path d="M134.912 16.7732V16.5879H133.661L131.206 19.7326V16.5879H130.147V19.7326L127.735 16.6355L127.723 16.5879H126.618V16.7732L129.254 20.105L126.441 23.292V23.4703H127.684L130.147 20.5091V23.4703H131.206V20.5091L133.7 23.4703H134.912V23.292L132.187 20.105L134.912 16.7732Z" fill="white"/>
<path d="M135.441 23.4703H139.5V22.4114H136.5V20.4702H139.147V19.5879H136.5V17.6467H139.5V16.5879H135.441V23.4703Z" fill="white"/>
<path d="M144.618 19.4114H141.441V16.5879H140.559V23.4703H141.441V20.4702H144.618V23.4703H145.677V16.5879H144.618V19.4114Z" fill="white"/>
<path d="M147.907 21.6085L147.97 20.6008V16.5879H146.912V23.4703H147.902L151.177 18.2044L151.147 19.2155V23.4703H152.206V16.5879H151L147.907 21.6085Z" fill="white"/>
<path d="M153.265 23.4703H157.323V22.4114H154.323V20.4702H157.147V19.5879H154.323V17.6467H157.323V16.5879H153.265V23.4703Z" fill="white"/>
<path d="M164.822 20.4634C164.633 20.2198 164.396 20.0345 164.118 19.9145C164.342 19.7875 164.527 19.6181 164.672 19.4063C164.845 19.1504 164.933 18.8522 164.933 18.5204C164.933 17.9769 164.73 17.504 164.331 17.144C163.934 16.7857 163.459 16.5898 162.919 16.5898H160.5V23.4722H163.052C163.616 23.4722 164.114 23.2728 164.529 22.9004C164.945 22.5246 165.157 22.041 165.157 21.4728C165.157 21.0934 165.044 20.751 164.822 20.4634ZM163.632 19.1487C163.452 19.3446 163.221 19.4116 162.921 19.4116H161.382V17.6469H162.958C163.244 17.6469 163.468 17.7228 163.641 17.9151C163.818 18.111 163.902 18.2963 163.902 18.5293C163.902 18.764 163.814 18.951 163.632 19.1487ZM163.823 22.1187C163.634 22.3304 163.394 22.4116 163.089 22.4116H161.382V20.4704H163.052C163.369 20.4704 163.62 20.5604 163.814 20.7704C164.012 20.9822 164.107 21.1904 164.107 21.441C164.107 21.6934 164.014 21.9051 163.823 22.1187Z" fill="white"/>
</g>
<defs>
<clipPath id="clip0_6756_27142">
<rect width="179.118" height="60" fill="white" transform="translate(0.441406)"/>
</clipPath>
</defs>
</svg>
