<svg width="10" height="10" viewBox="0 0 10 10" fill="none" xmlns="http://www.w3.org/2000/svg">
<path fill-rule="evenodd" clip-rule="evenodd" d="M9.64994 1.76775C10.0405 1.37727 10.0406 0.744109 9.65013 0.353533C9.25966 -0.0370424 8.62649 -0.037126 8.23592 0.353347L5.00198 3.58643L1.76805 0.353347C1.37747 -0.037126 0.744308 -0.0370424 0.353835 0.353533C-0.0366377 0.744109 -0.0365541 1.37727 0.354022 1.76775L3.58758 5.00045L0.354022 8.23316C-0.0365541 8.62363 -0.0366377 9.2568 0.353835 9.64737C0.744308 10.038 1.37747 10.038 1.76805 9.64756L5.00198 6.41448L8.23592 9.64756C8.62649 10.038 9.25966 10.038 9.65013 9.64737C10.0406 9.2568 10.0405 8.62363 9.64994 8.23316L6.41638 5.00045L9.64994 1.76775Z" fill="currentColor"/>
</svg>
