<svg width="233" height="53" fill="none" xmlns="http://www.w3.org/2000/svg"><path d="M107.767 10.428c-4.453-.297-6.531 1.186-6.531 5.043h6.531v10.384h-6.531v25.513H90.548v-25.81h-4.75V15.47h4.75c0-5.043 1.484-9.197 4.453-11.867 2.969-2.67 7.125-3.856 13.063-3.56v10.384h-.297z" fill="#EA8E75"/><path fill-rule="evenodd" clip-rule="evenodd" d="M33.547 19.625c-3.563-3.56-7.422-5.34-12.172-5.34-4.453 0-8.016 1.483-10.688 4.45V1.23H0v49.247h10.688v-3.263c2.671 2.966 6.234 4.45 10.687 4.45 4.75 0 8.906-1.78 12.172-5.34 3.266-3.56 5.047-8.01 5.047-13.35s-1.782-9.79-5.047-13.35zm-14.25 22.25c-2.672 0-4.75-.89-6.235-2.374-1.484-1.483-2.374-3.56-2.374-6.526 0-2.67.89-4.747 2.374-6.23 1.782-1.484 3.563-2.077 6.235-2.077 2.375 0 4.453.593 6.234 2.373 1.485 1.484 2.375 3.56 2.375 6.23 0 2.67-.89 4.747-2.375 6.23-1.781 1.484-3.86 2.374-6.234 2.374zm61.749-26.403H70.36v3.856c-2.672-2.966-6.235-4.45-10.688-4.45-4.75 0-8.906 1.78-12.172 5.34-3.265 3.56-5.047 8.01-5.047 13.35s1.485 9.79 5.047 13.35c3.563 3.56 7.422 5.34 12.172 5.34 4.75 0 8.016-1.483 10.688-4.45v3.264h10.687v-35.6zm-19 26.403c-2.672 0-4.75-.89-6.234-2.373-1.484-1.484-2.375-3.56-2.375-6.23 0-2.67.594-4.747 2.375-6.23 1.781-1.484 3.562-2.374 6.234-2.374s4.75.89 6.235 2.374c1.484 1.483 2.375 3.56 2.375 6.23 0 2.67-.891 4.746-2.375 6.23-1.782 1.483-3.563 2.373-6.235 2.373zm66.798 10.086c5.344 0 9.797-1.78 13.359-5.34 3.563-3.56 5.344-8.01 5.641-13.35 0-5.34-2.078-9.79-5.641-13.35-3.562-3.56-8.015-5.34-13.359-5.34-5.344 0-9.797 1.78-13.36 5.34-3.859 3.56-5.64 8.01-5.64 13.35s1.781 9.79 5.64 13.35c3.563 3.56 8.016 5.34 13.36 5.34zm0-10.383c-2.375 0-4.453-.89-5.938-2.373-1.781-1.484-2.375-3.56-2.375-5.934 0-2.373.891-4.45 2.375-5.933 1.782-1.483 3.563-2.373 5.938-2.373 2.375 0 4.453.89 5.937 2.373 1.485 1.483 2.375 3.56 2.375 5.933 0 2.374-.594 4.45-2.375 5.934-1.781 1.483-3.562 2.373-5.937 2.373zm55.516 5.043c-3.563 3.56-8.016 5.34-13.359 5.34-5.344 0-9.797-1.78-13.36-5.34-3.562-3.56-5.64-8.01-5.64-13.35s1.781-9.79 5.64-13.35c3.563-3.56 8.016-5.34 13.36-5.34 5.343 0 9.796 1.78 13.359 5.34 3.562 3.56 5.641 8.01 5.641 13.35-.297 5.34-2.079 9.79-5.641 13.35zm-19.297-7.416c1.484 1.483 3.563 2.373 5.938 2.373 2.375 0 4.156-.89 5.937-2.373 1.484-1.484 2.375-3.56 2.375-5.934 0-2.373-.891-4.45-2.375-5.933-1.484-1.483-3.562-2.373-5.937-2.373-2.375 0-4.157.89-5.938 2.373-1.484 1.483-2.375 3.56-2.375 5.933 0 2.374.594 4.45 2.375 5.934zm67.39-37.974h-10.688v18.097c-2.672-2.967-6.234-4.45-10.687-4.45-4.75 0-8.907 1.78-12.172 5.34-3.266 3.56-5.047 8.01-5.047 13.35s1.781 9.79 5.047 13.35c3.562 3.56 7.422 5.34 12.172 5.34 4.75 0 8.015-1.483 10.687-4.45v3.263h10.688V1.231zm-19 40.644c-2.672 0-4.75-.89-6.235-2.374-1.781-1.483-2.375-3.56-2.375-6.526 0-2.67.891-4.747 2.375-6.23 1.485-1.484 3.563-2.077 6.235-2.077 2.671 0 4.75.89 6.234 2.373 1.484 1.484 2.375 3.56 2.375 6.23 0 2.67-.891 4.747-2.375 6.23-1.781 1.484-3.563 2.374-6.234 2.374z" fill="#EA8E75"/></svg>