<?xml version="1.0" encoding="utf-8"?><svg viewBox="0 0 181 60" xmlns="http://www.w3.org/2000/svg" xmlns:xlink="http://www.w3.org/1999/xlink"><style>:root>svg{display:none}:root>svg:target{display:block}</style><svg fill="none" viewBox="0 0 181 60" id="app-store" xmlns="http://www.w3.org/2000/svg"><g clip-path="url(#aclip0_6756_27141)"><path fill-rule="evenodd" clip-rule="evenodd" d="M169.338 0H11.434C2.011 0 .441 3.247.441 10.97V49.1C.441 56.815 3.67 60 11.424 60H169.34c7.76 0 11.101-3.189 11.101-10.911v-38.12C180.441 3.247 177.098 0 169.338 0z" fill="#000"/><path fill-rule="evenodd" clip-rule="evenodd" d="M47.37 37.348c-.905 2-1.34 2.893-2.507 4.66-1.63 2.466-3.924 5.539-6.769 5.565-2.527.023-3.176-1.638-6.606-1.618-3.43.02-4.146 1.646-6.675 1.623-2.845-.026-5.019-2.8-6.648-5.267-4.554-6.9-5.032-14.997-2.222-19.3 1.996-3.06 5.144-4.85 8.106-4.85 3.015 0 4.91 1.644 7.402 1.644 2.417 0 3.89-1.648 7.377-1.648 2.636 0 5.427 1.428 7.415 3.897-6.516 3.556-5.457 12.819 1.128 15.294z" fill="#fff"/><path fill-rule="evenodd" clip-rule="evenodd" d="M36.184 15.404c1.266-1.616 2.227-3.901 1.88-6.236-2.068.141-4.489 1.45-5.902 3.159-1.282 1.55-2.34 3.849-1.928 6.083 2.258.069 4.593-1.273 5.95-3.006zM164.369 40.588h-9.158c.035 1.236.479 2.32 1.33 3.03.769.64 1.768.93 2.993.93 1.359 0 2.589-.23 3.703-.667l.481 2.105c-1.295.567-2.834.839-4.609.839-2.125 0-3.797-.621-5.012-1.867-1.215-1.246-1.827-2.92-1.827-5.02 0-2.066.568-3.777 1.696-5.152 1.192-1.46 2.793-2.19 4.806-2.19 1.984 0 3.479.729 4.494 2.19.806 1.166 1.214 2.66 1.214 4.366 0 .538-.039 1.083-.111 1.436zm-13.012-5.013c-.177-.055-.647-.078-.984-.078-1.073 0-1.912.403-2.497 1.207-.511.715-.775 1.6-.775 2.697v7.01h-3.015v-9.21c0-1.565-.065-2.966-.119-4.377h2.655l.114 2.823h.083c.319-.882.825-1.685 1.525-2.223.678-.493 1.44-.761 2.231-.761.28 0 .603-.018.78.02v2.892h.002zm-11.034 9.23c-1.266 1.383-2.942 2.076-5.029 2.076-2.02 0-3.63-.665-4.826-1.996-1.195-1.327-1.789-3.012-1.789-5.033 0-2.115.615-3.852 1.85-5.2 1.236-1.355 2.894-2.02 4.985-2.02 2.023 0 3.642.657 4.866 1.995 1.165 1.287 1.748 2.96 1.748 5.001-.001 2.104-.599 3.823-1.805 5.176zm-12.552-9.51h-3.192v6.527c0 1.685.525 2.522 1.713 2.522.546 0 .958-.04 1.319-.133l.07 2.3c-.605.225-1.403.338-2.382.338-1.199 0-2.181-.36-2.857-1.097-.685-.727-1.053-1.957-1.053-3.681v-6.777h-1.951v-2.47h1.951v-2.422l3.192-.9v3.322h3.192v2.47h-.002zm-10.727 9.896c-1.247 1.108-2.974 1.658-5.189 1.658-2.054 0-3.696-.395-4.936-1.178l.71-2.53a8.555 8.555 0 004.401 1.18c1.155 0 2.047-.261 2.689-.773.636-.514.957-1.202.957-2.076 0-.758-.264-1.404-.789-1.934-.532-.524-1.401-1.007-2.626-1.46-3.331-1.234-4.999-3.043-4.999-5.424 0-1.555.581-2.834 1.761-3.826 1.177-.991 2.736-1.49 4.678-1.49 1.732 0 3.174.303 4.325.9l-.77 2.475c-1.072-.579-2.294-.873-3.654-.873-1.077 0-1.919.271-2.528.785-.507.474-.762 1.046-.762 1.719 0 .744.292 1.365.874 1.86.511.448 1.433.931 2.767 1.456 1.644.65 2.846 1.424 3.621 2.308.77.88 1.158 1.974 1.158 3.286.002 1.614-.566 2.93-1.688 3.937zm-17.633-.106c-1.137 1.194-2.556 1.794-4.244 1.794-1.818 0-3.041-.645-3.928-1.944v7.3h-3.015v-14.84c0-1.462-.057-2.807-.13-4.571h2.678l.178 2.294h.053c1.025-1.589 2.564-2.464 4.636-2.464 1.62 0 2.972.62 4.056 1.897 1.085 1.273 1.626 2.947 1.626 5.028-.002 2.33-.637 4.154-1.91 5.506zm-15.088 0c-1.135 1.194-2.55 1.794-4.235 1.794-1.823 0-3.036-.645-3.923-1.944v7.3H73.15v-14.84c0-1.462-.069-2.807-.147-4.571h2.685l.168 2.294h.054c1.023-1.589 2.564-2.464 4.639-2.464 1.619 0 2.969.62 4.057 1.897 1.08 1.273 1.623 2.947 1.623 5.028.002 2.33-.633 4.154-1.906 5.506zm-16.32 1.327l-1.78-5.47h-6.19l-1.698 5.47h-3.162L61.3 27.529h3.792l6.162 18.883h-3.252zm90.544-11.71c-.997 0-1.806.508-2.43 1.326-.507.655-.812 1.384-.904 2.443h6.357c.016-1.06-.177-1.756-.59-2.416-.531-.84-1.343-1.354-2.433-1.354zm-95.434-4.525h-.053c-.192.882-.49 2.057-.908 3.633l-1.582 5.014h5.113l-1.604-5.014c-.173-.508-.498-1.869-.966-3.634zm31.536 4.863c-.755 0-1.43.247-2.046.743a3.516 3.516 0 00-1.215 1.96c-.094.378-.15.685-.15.93v2.275c0 .996.313 1.837.928 2.522.612.678 1.414 1.022 2.39 1.022 1.154 0 2.051-.438 2.691-1.322.642-.882.965-2.044.965-3.49 0-1.328-.303-2.425-.904-3.286-.664-.897-1.55-1.354-2.659-1.354zm40.751-.19c-1.222 0-2.155.54-2.791 1.625-.552.893-.823 1.985-.823 3.275 0 1.258.271 2.33.823 3.226.652 1.084 1.576 1.623 2.768 1.623 1.16 0 2.078-.547 2.735-1.657.569-.907.853-1.995.853-3.243 0-1.251-.273-2.33-.816-3.222-.649-1.087-1.561-1.627-2.749-1.627zm-55.844.19c-.752 0-1.431.247-2.047.743-.613.503-1.014 1.154-1.204 1.96-.092.378-.142.685-.142.93v2.275c0 .996.303 1.837.919 2.522.612.678 1.41 1.022 2.387 1.022 1.147 0 2.048-.438 2.688-1.322.64-.882.958-2.044.958-3.49 0-1.328-.298-2.425-.9-3.286-.662-.897-1.546-1.354-2.66-1.354z" fill="#fff"/><path d="M64.534 13.08v8.36l.933.044-.103 3.802h-1.371l-.103-2.422h-5.966l-.102 2.422H56.45l-.087-3.802.787-.045c.38-.683.729-1.394.949-2.161.307-1.045.424-2.236.424-3.643V13.08h6.01zm-4.347 3.004c0 1.335-.145 2.539-.466 3.57a9.207 9.207 0 01-.73 1.741h3.75v-6.85h-2.554v1.539zM73.49 19.262c0 2.598-1.838 3.759-3.647 3.759-2.012 0-3.559-1.378-3.559-3.643 0-2.322 1.532-3.744 3.676-3.744 2.114 0 3.53 1.48 3.53 3.628zm-5.354.072c0 1.364.67 2.395 1.764 2.395 1.022 0 1.736-1 1.736-2.423 0-1.103-.496-2.366-1.722-2.366-1.268 0-1.778 1.22-1.778 2.394zM80.184 22.645c-.38.175-1.122.364-2.013.364-2.216 0-3.66-1.409-3.66-3.6 0-2.12 1.458-3.773 3.953-3.773.656 0 1.327.144 1.736.333l-.32 1.336a3.172 3.172 0 00-1.357-.275c-1.371 0-2.189 1-2.173 2.292 0 1.45.949 2.279 2.173 2.279.627 0 1.064-.131 1.415-.276l.246 1.32zM86.996 15.794v1.378h-2.13v5.69H83.07v-5.69h-2.13v-1.378h6.055zM89.447 15.794l1.283 3.789c.146.436.293.972.394 1.378h.044c.117-.406.249-.928.38-1.394l1.108-3.773h1.926l-1.778 4.82c-.978 2.641-1.634 3.816-2.48 4.542-.7.624-1.429.856-1.881.914l-.408-1.509a3.065 3.065 0 001.05-.494c.335-.217.729-.639.977-1.117.073-.13.117-.233.117-.32 0-.072-.014-.174-.103-.347l-2.598-6.49h1.969zM101.875 15.794v7.068h-1.809v-5.69h-2.67v5.69h-1.794v-7.068h6.273zM105.565 15.794v2.7h2.742v-2.7h1.795v7.068h-1.795v-2.976h-2.742v2.976h-1.794v-7.068h1.794zM118.764 19.262c0 2.598-1.837 3.759-3.646 3.759-2.013 0-3.559-1.378-3.559-3.643 0-2.322 1.532-3.744 3.676-3.744 2.116 0 3.529 1.48 3.529 3.628zm-5.352.072c0 1.364.671 2.395 1.765 2.395 1.021 0 1.736-1 1.736-2.423 0-1.103-.497-2.366-1.722-2.366-1.268 0-1.779 1.22-1.779 2.394zM123.244 15.88c.525-.086 1.605-.174 2.582-.174 1.195 0 3.355.159 3.355 1.786 0 .9-.7 1.408-1.457 1.567v.028c1.05.16 1.778.74 1.778 1.728 0 1.945-2.567 2.133-3.997 2.133-.89 0-1.837-.058-2.261-.102v-6.965zm1.735 5.907c.292.029.51.044.876.044.817 0 1.808-.217 1.808-1.044 0-.798-.787-1.06-1.909-1.06h-.774v2.06h-.001zm.015-3.134h.744c.918 0 1.677-.261 1.677-.928 0-.567-.496-.87-1.56-.87-.35 0-.584.028-.861.058v1.74z" fill="#fff"/></g><defs><clipPath id="aclip0_6756_27141"><path fill="#fff" transform="translate(.441)" d="M0 0h180v60H0z"/></clipPath></defs></svg><svg fill="none" viewBox="0 0 180 60" id="google-play" xmlns="http://www.w3.org/2000/svg"><g clip-path="url(#bclip0_6756_27142)"><path fill-rule="evenodd" clip-rule="evenodd" d="M168.51 0H11.38C2.004 0 .442 3.247.442 10.97V49.1c0 7.716 3.212 10.9 10.93 10.9h157.141c7.722 0 11.047-3.189 11.047-10.911v-38.12C179.559 3.247 176.233 0 168.51 0z" fill="#000"/><path d="M88.987 34.398c-3.286 0-5.887 2.463-5.887 5.887a5.843 5.843 0 005.887 5.887c3.286 0 5.887-2.463 5.887-5.887 0-3.561-2.601-5.887-5.887-5.887zm0 9.307c-1.779 0-3.286-1.505-3.286-3.56 0-2.053 1.506-3.559 3.286-3.559 1.779 0 3.286 1.37 3.286 3.56 0 2.054-1.505 3.559-3.286 3.559zm-12.73-9.307c-3.286 0-5.888 2.463-5.888 5.887a5.843 5.843 0 005.888 5.887c3.285 0 5.887-2.463 5.887-5.887-.002-3.561-2.602-5.887-5.887-5.887zm0 9.307c-1.78 0-3.286-1.505-3.286-3.56 0-2.053 1.505-3.559 3.286-3.559 1.778 0 3.285 1.37 3.285 3.56 0 2.054-1.507 3.559-3.285 3.559zM61.06 36.177v2.463h5.887c-.138 1.37-.685 2.464-1.37 3.149-.82.82-2.19 1.778-4.517 1.778-3.696 0-6.434-2.874-6.434-6.57 0-3.695 2.874-6.57 6.434-6.57 1.916 0 3.421.821 4.517 1.78l1.78-1.78c-1.506-1.369-3.423-2.463-6.161-2.463-4.93 0-9.172 4.106-9.172 9.035s4.245 9.035 9.172 9.035c2.737 0 4.653-.82 6.296-2.6 1.643-1.644 2.19-3.971 2.19-5.75 0-.547 0-1.096-.138-1.505l-8.484-.002zm62.149 1.916c-.547-1.37-1.916-3.695-4.929-3.695-3.012 0-5.476 2.328-5.476 5.887 0 3.286 2.464 5.887 5.75 5.887 2.601 0 4.244-1.643 4.791-2.601l-1.916-1.37c-.685.959-1.506 1.643-2.875 1.643-1.37 0-2.19-.547-2.875-1.778l7.804-3.286-.274-.687zm-7.939 1.917c0-2.19 1.779-3.422 3.012-3.422.958 0 1.917.547 2.19 1.232l-5.202 2.19zm-6.434 5.611h2.601V28.51h-2.601v17.112zm-4.107-9.991c-.685-.685-1.779-1.37-3.148-1.37-2.875 0-5.612 2.602-5.612 5.887 0 3.286 2.601 5.75 5.612 5.75 1.369 0 2.463-.685 3.012-1.37h.138v.821c0 2.19-1.232 3.422-3.148 3.422-1.506 0-2.602-1.096-2.875-2.054l-2.19.958c.685 1.505 2.328 3.422 5.202 3.422 3.013 0 5.476-1.78 5.476-6.023V34.668h-2.463l-.004.962zm-3.012 8.075c-1.78 0-3.286-1.505-3.286-3.56 0-2.053 1.505-3.559 3.286-3.559 1.779 0 3.148 1.506 3.148 3.56 0 2.054-1.368 3.559-3.148 3.559zm33.402-15.194h-6.16v17.112h2.601V39.19h3.559c2.875 0 5.612-2.054 5.612-5.338 0-3.284-2.737-5.34-5.612-5.34zm.138 8.213h-3.696v-5.887h3.696c1.916 0 3.012 1.643 3.012 2.875-.138 1.507-1.233 3.012-3.012 3.012zm15.741-2.464c-1.917 0-3.833.82-4.518 2.602l2.328.958c.547-.959 1.369-1.232 2.328-1.232 1.369 0 2.601.82 2.737 2.19v.138c-.412-.274-1.506-.685-2.602-.685-2.463 0-4.928 1.37-4.928 3.833 0 2.328 2.054 3.833 4.244 3.833 1.779 0 2.601-.82 3.286-1.643h.137v1.37h2.464v-6.57c-.274-3.015-2.601-4.794-5.476-4.794zm-.274 9.445c-.82 0-2.054-.411-2.054-1.505 0-1.37 1.506-1.78 2.737-1.78 1.096 0 1.643.274 2.328.548-.272 1.643-1.641 2.737-3.011 2.737zm14.374-9.033l-2.875 7.392h-.136l-3.012-7.392h-2.737l4.518 10.404-2.602 5.748h2.602l6.981-16.154h-2.739v.002zm-22.998 10.95h2.601V28.508h-2.601v17.112z" fill="#fff"/><path fill-rule="evenodd" clip-rule="evenodd" d="M38.69 24.716L17.249 12.381l16.935 16.848 4.506-4.513zM15.26 12.506c-.083.15-.172.321-.172.51v34.907c0 .11.057.214.087.311l17.935-17.97-17.85-17.758zM34.188 31.299L16.604 48.914a.917.917 0 00.152-.072l22.218-12.784-4.786-4.76zM47.092 29.552l-7.09-4.078-4.78 4.789 5.067 5.04 6.803-3.914c.709-.408.709-1.43 0-1.837z" fill="#fff"/><path d="M54.355 16.588l-2.577 6.882h1.139l.65-1.764h2.674l.64 1.764h1.14l-2.577-6.882h-1.09zm1.525 4.059h-1.961l.981-2.707.98 2.707zM62.912 20.603l.003 1.005-3.151-5.02H58.5v6.882h1.059v-5.266l3.305 5.266h1.107v-6.882h-1.06v4.015zM67.179 16.588h-2.15v6.882h2.15c1.043 0 1.888-.33 2.516-.961.628-.63.946-1.465.946-2.471s-.318-1.851-.946-2.483c-.626-.63-1.473-.967-2.516-.967zm0 5.823h-1.09v-4.764h1.09c.74 0 1.334.197 1.764.62.431.424.648 1.016.648 1.774 0 .764-.217 1.34-.648 1.762-.428.421-1.023.608-1.764.608zM75.53 19.974c.316-.37.476-.804.476-1.288 0-.593-.217-1.106-.647-1.498a2.211 2.211 0 00-1.523-.6h-2.277v6.882h.882v-2.647h.883l1.794 2.647h1.206v-.173l-1.853-2.642c.429-.107.766-.337 1.059-.68zm-.574-1.288a.991.991 0 01-.339.775c-.23.21-.497.305-.819.305h-1.357V17.65h1.414c.335 0 .598.091.8.315.202.226.301.45.301.722zM80.036 16.468c-.993 0-1.835.347-2.504 1.036-.667.686-1.006 1.537-1.006 2.528 0 .992.34 1.845 1.006 2.53.667.686 1.51 1.035 2.504 1.035s1.836-.348 2.504-1.036c.667-.686 1.006-1.537 1.006-2.529 0-.986-.34-1.835-1.01-2.525-.673-.688-1.513-1.04-2.5-1.04zm0 6.136a2.393 2.393 0 01-1.75-.719c-.471-.481-.71-1.106-.71-1.853 0-.746.24-1.369.713-1.847a2.365 2.365 0 011.746-.722c.684 0 1.272.244 1.745.722.473.48.713 1.101.713 1.848 0 .746-.24 1.369-.713 1.847a2.36 2.36 0 01-1.744.724zM85.5 16.588h-1.059v6.882h1.06v-6.882zM88.7 16.588h-2.14v6.882h2.14c1.043 0 1.888-.33 2.516-.961.628-.63.946-1.465.946-2.471s-.318-1.851-.946-2.483c-.626-.63-1.473-.967-2.516-.967zm0 5.823h-1.082v-4.764H88.7c.74 0 1.334.197 1.764.62.431.424.648 1.016.648 1.774 0 .764-.217 1.34-.648 1.762-.428.421-1.023.608-1.764.608zM95.03 23.47h1.058v-5.823h3v5.823h.883v-6.882h-4.942v6.882zM103.555 16.588h-2.349v6.882h1.059v-2.647h1.29c.584 0 1.096-.231 1.523-.62.429-.39.647-.906.647-1.5 0-.592-.217-1.114-.647-1.505a2.21 2.21 0 00-1.523-.61zm.819 2.841c-.201.224-.463.335-.8.335h-1.309v-2.117h1.309c.336 0 .599.091.8.316.203.227.303.462.303.732-.002.272-.1.506-.303.734zM107.486 21.608l.073-1.007v-4.013H106.5v6.882h.972l3.284-5.266-.021 1.011v4.255h1.059v-6.882h-1.223l-3.085 5.02zM113.735 20.686c0 .464-.1.848-.294 1.145-.196.3-.51.563-.922.783l-.088.046.588.89.069-.036c.545-.271.988-.637 1.268-1.081.281-.447.438-1.035.438-1.75v-3.036h2.471v5.823h1.059v-6.882h-4.589v4.098zM122.677 16.468c-.994 0-1.835.347-2.504 1.036-.667.686-1.006 1.537-1.006 2.528 0 .992.339 1.845 1.006 2.53.669.686 1.51 1.035 2.504 1.035s1.835-.348 2.504-1.036c.667-.686 1.006-1.537 1.006-2.529 0-.986-.341-1.835-1.011-2.525-.671-.688-1.511-1.04-2.499-1.04zm0 6.136a2.394 2.394 0 01-1.751-.719c-.471-.481-.709-1.106-.709-1.853 0-.746.24-1.369.713-1.847a2.366 2.366 0 011.745-.722c.685 0 1.273.244 1.746.722.472.48.712 1.101.712 1.848 0 .746-.24 1.369-.712 1.847a2.36 2.36 0 01-1.744.724zM134.912 16.773v-.185h-1.251l-2.455 3.145v-3.145h-1.059v3.145l-2.412-3.098-.012-.047h-1.105v.185l2.636 3.332-2.813 3.187v.178h1.243l2.463-2.96v2.96h1.059v-2.96l2.494 2.96h1.212v-.178l-2.725-3.187 2.725-3.332zM135.441 23.47h4.059v-1.059h-3v-1.94h2.647v-.883H136.5v-1.941h3v-1.06h-4.059v6.883zM144.618 19.411h-3.177v-2.823h-.882v6.882h.882v-3h3.177v3h1.059v-6.882h-1.059v2.823zM147.907 21.608l.063-1.007v-4.013h-1.058v6.882h.99l3.275-5.266-.03 1.011v4.255h1.059v-6.882H151l-3.093 5.02zM153.265 23.47h4.058v-1.059h-3v-1.94h2.824v-.883h-2.824v-1.941h3v-1.06h-4.058v6.883zM164.822 20.463a1.774 1.774 0 00-.704-.549c.224-.127.409-.296.554-.508.173-.256.261-.554.261-.886 0-.543-.203-1.016-.602-1.376a2.06 2.06 0 00-1.412-.554H160.5v6.882h2.552c.564 0 1.062-.2 1.477-.572.416-.375.628-.859.628-1.427 0-.38-.113-.722-.335-1.01zm-1.19-1.314c-.18.196-.411.263-.711.263h-1.539v-1.765h1.576c.286 0 .51.076.683.268.177.196.261.381.261.614 0 .235-.088.422-.27.62zm.191 2.97c-.189.211-.429.293-.734.293h-1.707V20.47h1.67c.317 0 .568.09.762.3.198.212.293.42.293.671 0 .252-.093.464-.284.678z" fill="#fff"/></g><defs><clipPath id="bclip0_6756_27142"><path fill="#fff" transform="translate(.441)" d="M0 0h179.118v60H0z"/></clipPath></defs></svg><svg fill="none" viewBox="0 0 10 10" id="icon-close" xmlns="http://www.w3.org/2000/svg"><path fill-rule="evenodd" clip-rule="evenodd" d="M9.65 1.768A1 1 0 008.236.353L5.002 3.586 1.768.353A1 1 0 10.354 1.768L3.588 5 .354 8.233a1 1 0 101.414 1.415l3.234-3.234 3.234 3.234A1 1 0 109.65 8.233L6.416 5 9.65 1.768z" fill="currentColor"/></svg></svg>