<svg width="181" height="60" fill="none" xmlns="http://www.w3.org/2000/svg"><g clip-path="url(#clip0_6756_27141)"><path fill-rule="evenodd" clip-rule="evenodd" d="M169.338 0H11.434C2.011 0 .441 3.247.441 10.97V49.1C.441 56.815 3.67 60 11.424 60H169.34c7.76 0 11.101-3.189 11.101-10.911v-38.12C180.441 3.247 177.098 0 169.338 0z" fill="#000"/><path fill-rule="evenodd" clip-rule="evenodd" d="M47.37 37.348c-.905 2-1.34 2.893-2.507 4.66-1.63 2.466-3.924 5.539-6.769 5.565-2.527.023-3.176-1.638-6.606-1.618-3.43.02-4.146 1.646-6.675 1.623-2.845-.026-5.019-2.8-6.648-5.267-4.554-6.9-5.032-14.997-2.222-19.3 1.996-3.06 5.144-4.85 8.106-4.85 3.015 0 4.91 1.644 7.402 1.644 2.417 0 3.89-1.648 7.377-1.648 2.636 0 5.427 1.428 7.415 3.897-6.516 3.556-5.457 12.819 1.128 15.294z" fill="#fff"/><path fill-rule="evenodd" clip-rule="evenodd" d="M36.184 15.404c1.266-1.616 2.227-3.901 1.88-6.236-2.068.141-4.489 1.45-5.902 3.159-1.282 1.55-2.34 3.849-1.928 6.083 2.258.069 4.593-1.273 5.95-3.006zm128.185 25.184h-9.158c.035 1.236.479 2.32 1.33 3.03.769.64 1.768.93 2.993.93 1.359 0 2.589-.23 3.703-.667l.481 2.105c-1.295.567-2.834.839-4.609.839-2.125 0-3.797-.621-5.012-1.867-1.215-1.246-1.827-2.92-1.827-5.02 0-2.066.568-3.777 1.696-5.152 1.192-1.46 2.793-2.19 4.806-2.19 1.984 0 3.479.729 4.494 2.19.806 1.166 1.214 2.66 1.214 4.366 0 .538-.039 1.083-.111 1.436zm-13.012-5.013c-.177-.055-.647-.078-.984-.078-1.073 0-1.912.403-2.497 1.207-.511.715-.775 1.6-.775 2.697v7.01h-3.015v-9.21c0-1.565-.065-2.966-.119-4.377h2.655l.114 2.823h.083c.319-.882.825-1.685 1.525-2.223.678-.493 1.44-.761 2.231-.761.28 0 .603-.018.78.02v2.892h.002zm-11.034 9.23c-1.266 1.383-2.942 2.076-5.029 2.076-2.02 0-3.63-.665-4.826-1.996-1.195-1.327-1.789-3.012-1.789-5.033 0-2.115.615-3.852 1.85-5.2 1.236-1.355 2.894-2.02 4.985-2.02 2.023 0 3.642.657 4.866 1.995 1.165 1.287 1.748 2.96 1.748 5.001-.001 2.104-.599 3.823-1.805 5.176zm-12.552-9.51h-3.192v6.527c0 1.685.525 2.522 1.713 2.522.546 0 .958-.04 1.319-.133l.07 2.3c-.605.225-1.403.338-2.382.338-1.199 0-2.181-.36-2.857-1.097-.685-.727-1.053-1.957-1.053-3.681v-6.777h-1.951v-2.47h1.951v-2.422l3.192-.9v3.322h3.192v2.47h-.002zm-10.727 9.896c-1.247 1.108-2.974 1.658-5.189 1.658-2.054 0-3.696-.395-4.936-1.178l.71-2.53a8.555 8.555 0 004.401 1.18c1.155 0 2.047-.261 2.689-.773.636-.514.957-1.202.957-2.076 0-.758-.264-1.404-.789-1.934-.532-.524-1.401-1.007-2.626-1.46-3.331-1.234-4.999-3.043-4.999-5.424 0-1.555.581-2.834 1.761-3.826 1.177-.991 2.736-1.49 4.678-1.49 1.732 0 3.174.303 4.325.9l-.77 2.475c-1.072-.579-2.294-.873-3.654-.873-1.077 0-1.919.271-2.528.785-.507.474-.762 1.046-.762 1.719 0 .744.292 1.365.874 1.86.511.448 1.433.931 2.767 1.456 1.644.65 2.846 1.424 3.621 2.308.77.88 1.158 1.974 1.158 3.286.002 1.614-.566 2.93-1.688 3.937zm-17.633-.106c-1.137 1.194-2.556 1.794-4.244 1.794-1.818 0-3.041-.645-3.928-1.944v7.3h-3.015v-14.84c0-1.462-.057-2.807-.13-4.571h2.678l.178 2.294h.053c1.025-1.589 2.564-2.464 4.636-2.464 1.62 0 2.972.62 4.056 1.897 1.085 1.273 1.626 2.947 1.626 5.028-.002 2.33-.637 4.154-1.91 5.506zm-15.088 0c-1.135 1.194-2.55 1.794-4.235 1.794-1.823 0-3.036-.645-3.923-1.944v7.3H73.15v-14.84c0-1.462-.069-2.807-.147-4.571h2.685l.168 2.294h.054c1.023-1.589 2.564-2.464 4.639-2.464 1.619 0 2.969.62 4.057 1.897 1.08 1.273 1.623 2.947 1.623 5.028.002 2.33-.633 4.154-1.906 5.506zm-16.32 1.327l-1.78-5.47h-6.19l-1.698 5.47h-3.162L61.3 27.529h3.792l6.162 18.883h-3.252zm90.544-11.71c-.997 0-1.806.508-2.43 1.326-.507.655-.812 1.384-.904 2.443h6.357c.016-1.06-.177-1.756-.59-2.416-.531-.84-1.343-1.354-2.433-1.354zm-95.434-4.525h-.053c-.192.882-.49 2.057-.908 3.633l-1.582 5.014h5.113l-1.604-5.014c-.173-.508-.498-1.869-.966-3.634zm31.536 4.863c-.755 0-1.43.247-2.046.743a3.516 3.516 0 00-1.215 1.96c-.094.378-.15.685-.15.93v2.275c0 .996.313 1.837.928 2.522.612.678 1.414 1.022 2.39 1.022 1.154 0 2.051-.438 2.691-1.322.642-.882.965-2.044.965-3.49 0-1.328-.303-2.425-.904-3.286-.664-.897-1.55-1.354-2.659-1.354zm40.751-.19c-1.222 0-2.155.54-2.791 1.625-.552.893-.823 1.985-.823 3.275 0 1.258.271 2.33.823 3.226.652 1.084 1.576 1.623 2.768 1.623 1.16 0 2.078-.547 2.735-1.657.569-.907.853-1.995.853-3.243 0-1.251-.273-2.33-.816-3.222-.649-1.087-1.561-1.627-2.749-1.627zm-55.844.19c-.752 0-1.431.247-2.047.743-.613.503-1.014 1.154-1.204 1.96-.092.378-.142.685-.142.93v2.275c0 .996.303 1.837.919 2.522.612.678 1.41 1.022 2.387 1.022 1.147 0 2.048-.438 2.688-1.322.64-.882.958-2.044.958-3.49 0-1.328-.298-2.425-.9-3.286-.662-.897-1.546-1.354-2.66-1.354z" fill="#fff"/><path d="M64.534 13.08v8.36l.933.044-.103 3.802h-1.371l-.103-2.422h-5.966l-.102 2.422H56.45l-.087-3.802.787-.045c.38-.683.729-1.394.949-2.161.307-1.045.424-2.236.424-3.643V13.08h6.01zm-4.347 3.004c0 1.335-.145 2.539-.466 3.57a9.207 9.207 0 01-.73 1.741h3.75v-6.85h-2.554v1.539zm13.303 3.178c0 2.598-1.838 3.759-3.647 3.759-2.012 0-3.559-1.378-3.559-3.643 0-2.322 1.532-3.744 3.676-3.744 2.114 0 3.53 1.48 3.53 3.628zm-5.354.072c0 1.364.67 2.395 1.764 2.395 1.022 0 1.736-1 1.736-2.423 0-1.103-.496-2.366-1.722-2.366-1.268 0-1.778 1.22-1.778 2.394zm12.048 3.311c-.38.175-1.122.364-2.013.364-2.216 0-3.66-1.409-3.66-3.6 0-2.12 1.458-3.773 3.953-3.773.656 0 1.327.144 1.736.333l-.32 1.336a3.172 3.172 0 00-1.357-.275c-1.371 0-2.189 1-2.173 2.292 0 1.45.949 2.279 2.173 2.279a3.53 3.53 0 001.415-.276l.246 1.32zm6.812-6.851v1.378h-2.13v5.69H83.07v-5.69h-2.13v-1.378h6.055zm2.451 0l1.283 3.789c.146.436.293.972.394 1.378h.044c.117-.406.249-.928.38-1.394l1.108-3.773h1.926l-1.778 4.82c-.978 2.641-1.634 3.816-2.48 4.542-.7.624-1.429.856-1.881.914l-.408-1.509a3.065 3.065 0 001.05-.494c.335-.217.729-.639.977-1.117.073-.13.117-.233.117-.32 0-.072-.014-.174-.103-.347l-2.598-6.49h1.969zm12.428 0v7.068h-1.809v-5.69h-2.67v5.69h-1.794v-7.068h6.273zm3.69 0v2.7h2.742v-2.7h1.795v7.068h-1.795v-2.976h-2.742v2.976h-1.794v-7.068h1.794zm13.199 3.468c0 2.598-1.837 3.759-3.646 3.759-2.013 0-3.559-1.378-3.559-3.643 0-2.322 1.532-3.744 3.676-3.744 2.116 0 3.529 1.48 3.529 3.628zm-5.352.072c0 1.364.671 2.395 1.765 2.395 1.021 0 1.736-1 1.736-2.423 0-1.103-.497-2.366-1.722-2.366-1.268 0-1.779 1.22-1.779 2.394zm9.832-3.454c.525-.086 1.605-.174 2.582-.174 1.195 0 3.355.159 3.355 1.786 0 .9-.7 1.408-1.457 1.567v.028c1.05.16 1.778.74 1.778 1.728 0 1.945-2.567 2.133-3.997 2.133-.89 0-1.837-.058-2.261-.102v-6.965zm1.735 5.907c.292.029.51.044.876.044.817 0 1.808-.217 1.808-1.044 0-.798-.787-1.06-1.909-1.06h-.774v2.06h-.001zm.015-3.134h.744c.918 0 1.677-.261 1.677-.928 0-.567-.496-.87-1.56-.87-.35 0-.584.028-.861.058v1.74z" fill="#fff"/></g><defs><clipPath id="clip0_6756_27141"><path fill="#fff" transform="translate(.441)" d="M0 0h180v60H0z"/></clipPath></defs></svg>