<svg width="180" height="60" fill="none" xmlns="http://www.w3.org/2000/svg"><g clip-path="url(#clip0_6756_27142)"><path fill-rule="evenodd" clip-rule="evenodd" d="M168.51 0H11.38C2.004 0 .442 3.247.442 10.97V49.1c0 7.716 3.212 10.9 10.93 10.9h157.141c7.722 0 11.047-3.189 11.047-10.911v-38.12C179.559 3.247 176.233 0 168.51 0z" fill="#000"/><path d="M88.987 34.398c-3.286 0-5.887 2.463-5.887 5.887a5.843 5.843 0 005.887 5.887c3.286 0 5.887-2.463 5.887-5.887 0-3.561-2.601-5.887-5.887-5.887zm0 9.307c-1.779 0-3.286-1.505-3.286-3.56 0-2.053 1.506-3.559 3.286-3.559 1.779 0 3.286 1.37 3.286 3.56 0 2.054-1.505 3.559-3.286 3.559zm-12.73-9.307c-3.286 0-5.888 2.463-5.888 5.887a5.843 5.843 0 005.888 5.887c3.285 0 5.887-2.463 5.887-5.887-.002-3.561-2.602-5.887-5.887-5.887zm0 9.307c-1.78 0-3.286-1.505-3.286-3.56 0-2.053 1.505-3.559 3.286-3.559 1.778 0 3.285 1.37 3.285 3.56 0 2.054-1.507 3.559-3.285 3.559zM61.06 36.177v2.463h5.887c-.138 1.37-.685 2.464-1.37 3.149-.82.82-2.19 1.778-4.517 1.778-3.696 0-6.434-2.874-6.434-6.57 0-3.695 2.874-6.57 6.434-6.57 1.916 0 3.421.821 4.517 1.78l1.78-1.78c-1.506-1.369-3.423-2.463-6.161-2.463-4.93 0-9.172 4.106-9.172 9.035s4.245 9.035 9.172 9.035c2.737 0 4.653-.82 6.296-2.6 1.643-1.644 2.19-3.971 2.19-5.75 0-.547 0-1.096-.138-1.505l-8.484-.002zm62.149 1.916c-.547-1.37-1.916-3.695-4.929-3.695-3.012 0-5.476 2.328-5.476 5.887 0 3.286 2.464 5.887 5.75 5.887 2.601 0 4.244-1.643 4.791-2.601l-1.916-1.37c-.685.959-1.506 1.643-2.875 1.643-1.37 0-2.19-.547-2.875-1.778l7.804-3.286-.274-.687zm-7.939 1.917c0-2.19 1.779-3.422 3.012-3.422.958 0 1.917.547 2.19 1.232l-5.202 2.19zm-6.434 5.611h2.601V28.51h-2.601v17.112zm-4.107-9.991c-.685-.685-1.779-1.37-3.148-1.37-2.875 0-5.612 2.602-5.612 5.887 0 3.286 2.601 5.75 5.612 5.75 1.369 0 2.463-.685 3.012-1.37h.138v.821c0 2.19-1.232 3.422-3.148 3.422-1.506 0-2.602-1.096-2.875-2.054l-2.19.958c.685 1.505 2.328 3.422 5.202 3.422 3.013 0 5.476-1.78 5.476-6.023V34.668h-2.463l-.004.962zm-3.012 8.075c-1.78 0-3.286-1.505-3.286-3.56 0-2.053 1.505-3.559 3.286-3.559 1.779 0 3.148 1.506 3.148 3.56 0 2.054-1.368 3.559-3.148 3.559zm33.402-15.194h-6.16v17.112h2.601V39.19h3.559c2.875 0 5.612-2.054 5.612-5.338 0-3.284-2.737-5.34-5.612-5.34zm.138 8.213h-3.696v-5.887h3.696c1.916 0 3.012 1.643 3.012 2.875-.138 1.507-1.233 3.012-3.012 3.012zm15.741-2.464c-1.917 0-3.833.82-4.518 2.602l2.328.958c.547-.959 1.369-1.232 2.328-1.232 1.369 0 2.601.82 2.737 2.19v.138c-.412-.274-1.506-.685-2.602-.685-2.463 0-4.928 1.37-4.928 3.833 0 2.328 2.054 3.833 4.244 3.833 1.779 0 2.601-.82 3.286-1.643h.137v1.37h2.464v-6.57c-.274-3.015-2.601-4.794-5.476-4.794zm-.274 9.445c-.82 0-2.054-.411-2.054-1.505 0-1.37 1.506-1.78 2.737-1.78 1.096 0 1.643.274 2.328.548-.272 1.643-1.641 2.737-3.011 2.737zm14.374-9.033l-2.875 7.392h-.136l-3.012-7.392h-2.737l4.518 10.404-2.602 5.748h2.602l6.981-16.154h-2.739v.002zM142.1 45.622h2.601V28.508H142.1V45.62z" fill="#fff"/><path fill-rule="evenodd" clip-rule="evenodd" d="M38.69 24.716L17.249 12.381l16.935 16.848 4.506-4.513zm-23.43-12.21c-.083.15-.172.321-.172.51v34.907c0 .11.057.214.087.311l17.935-17.97-17.85-17.758zm18.928 18.793L16.604 48.914a.917.917 0 00.152-.072l22.218-12.784-4.786-4.76zm12.904-1.747l-7.09-4.078-4.78 4.789 5.067 5.04 6.803-3.914a1.06 1.06 0 000-1.837z" fill="#fff"/><path d="M54.355 16.588l-2.577 6.882h1.139l.65-1.764h2.674l.64 1.764h1.14l-2.577-6.882h-1.09zm1.525 4.059h-1.961l.981-2.707.98 2.707zm7.032-.044l.003 1.005-3.151-5.02H58.5v6.882h1.059v-5.266l3.305 5.266h1.107v-6.882h-1.06v4.015zm4.267-4.015h-2.15v6.882h2.15c1.043 0 1.888-.33 2.516-.961.628-.63.946-1.465.946-2.471s-.318-1.851-.946-2.483c-.626-.63-1.473-.967-2.516-.967zm0 5.823h-1.09v-4.764h1.09c.74 0 1.334.197 1.764.62.431.424.648 1.016.648 1.774 0 .764-.217 1.34-.648 1.762-.428.421-1.023.608-1.764.608zm8.351-2.437c.316-.37.476-.804.476-1.288 0-.593-.217-1.106-.647-1.498a2.211 2.211 0 00-1.523-.6h-2.277v6.882h.882v-2.647h.883l1.794 2.647h1.206v-.173l-1.853-2.642c.429-.107.766-.337 1.059-.68zm-.574-1.288a.991.991 0 01-.339.775c-.23.21-.497.305-.819.305h-1.357V17.65h1.414c.335 0 .598.091.8.315.202.226.301.45.301.722zm5.08-2.218c-.993 0-1.835.347-2.504 1.036-.667.686-1.006 1.537-1.006 2.528 0 .992.34 1.845 1.006 2.53.667.686 1.51 1.035 2.504 1.035s1.836-.348 2.504-1.036c.667-.686 1.006-1.537 1.006-2.529 0-.986-.34-1.835-1.01-2.525-.673-.688-1.513-1.04-2.5-1.04zm0 6.136a2.393 2.393 0 01-1.75-.719c-.471-.481-.71-1.106-.71-1.853 0-.746.24-1.369.713-1.847a2.365 2.365 0 011.746-.722c.684 0 1.272.244 1.745.722.473.48.713 1.101.713 1.848 0 .746-.24 1.369-.713 1.847a2.36 2.36 0 01-1.744.724zm5.464-6.016h-1.059v6.882h1.06v-6.882zm3.2 0h-2.14v6.882h2.14c1.043 0 1.888-.33 2.516-.961.628-.63.946-1.465.946-2.471s-.318-1.851-.946-2.483c-.626-.63-1.473-.967-2.516-.967zm0 5.823h-1.082v-4.764H88.7c.74 0 1.334.197 1.764.62.431.424.648 1.016.648 1.774 0 .764-.217 1.34-.648 1.762-.428.421-1.023.608-1.764.608zm6.33 1.059h1.058v-5.823h3v5.823h.883v-6.882h-4.942v6.882zm8.525-6.882h-2.349v6.882h1.059v-2.647h1.29c.584 0 1.096-.231 1.523-.62.429-.39.647-.906.647-1.5 0-.592-.217-1.114-.647-1.505a2.21 2.21 0 00-1.523-.61zm.819 2.841c-.201.224-.463.335-.8.335h-1.309v-2.117h1.309c.336 0 .599.091.8.316.203.227.303.462.303.732-.002.272-.1.506-.303.734zm3.112 2.179l.073-1.007v-4.013H106.5v6.882h.972l3.284-5.266-.021 1.011v4.255h1.059v-6.882h-1.223l-3.085 5.02zm6.249-.922c0 .464-.1.848-.294 1.145-.196.3-.51.563-.922.783l-.088.046.588.89.069-.036c.545-.271.988-.637 1.268-1.081.281-.447.438-1.035.438-1.75v-3.036h2.471v5.823h1.059v-6.882h-4.589v4.098zm8.942-4.218c-.994 0-1.835.347-2.504 1.036-.667.686-1.006 1.537-1.006 2.528 0 .992.339 1.845 1.006 2.53.669.686 1.51 1.035 2.504 1.035s1.835-.348 2.504-1.036c.667-.686 1.006-1.537 1.006-2.529 0-.986-.341-1.835-1.011-2.525-.671-.688-1.511-1.04-2.499-1.04zm0 6.136a2.394 2.394 0 01-1.751-.719c-.471-.481-.709-1.106-.709-1.853 0-.746.24-1.369.713-1.847a2.366 2.366 0 011.745-.722c.685 0 1.273.244 1.746.722.472.48.712 1.101.712 1.848 0 .746-.24 1.369-.712 1.847a2.36 2.36 0 01-1.744.724zm12.235-5.831v-.185h-1.251l-2.455 3.145v-3.145h-1.059v3.145l-2.412-3.098-.012-.047h-1.105v.185l2.636 3.332-2.813 3.187v.178h1.243l2.463-2.96v2.96h1.059v-2.96l2.494 2.96h1.212v-.178l-2.725-3.187 2.725-3.332zm.529 6.697h4.059v-1.059h-3v-1.94h2.647v-.883H136.5v-1.941h3v-1.06h-4.059v6.883zm9.177-4.059h-3.177v-2.823h-.882v6.882h.882v-3h3.177v3h1.059v-6.882h-1.059v2.823zm3.289 2.197l.063-1.007v-4.013h-1.058v6.882h.99l3.275-5.266-.03 1.011v4.255h1.059v-6.882H151l-3.093 5.02zm5.358 1.862h4.058v-1.059h-3v-1.94h2.824v-.883h-2.824v-1.941h3v-1.06h-4.058v6.883zm11.557-3.007a1.774 1.774 0 00-.704-.549c.224-.127.409-.296.554-.508.173-.256.261-.554.261-.886 0-.543-.203-1.016-.602-1.376a2.06 2.06 0 00-1.412-.554H160.5v6.882h2.552c.564 0 1.062-.2 1.477-.572.416-.375.628-.859.628-1.427 0-.38-.113-.722-.335-1.01zm-1.19-1.314c-.18.196-.411.263-.711.263h-1.539v-1.765h1.576c.286 0 .51.076.683.268.177.196.261.381.261.614 0 .235-.088.422-.27.62zm.191 2.97c-.189.211-.429.293-.734.293h-1.707V20.47h1.67c.317 0 .568.09.762.3.198.212.293.42.293.671 0 .252-.093.464-.284.678z" fill="#fff"/></g><defs><clipPath id="clip0_6756_27142"><path fill="#fff" transform="translate(.441)" d="M0 0h179.118v60H0z"/></clipPath></defs></svg>